<?xml version="1.0" encoding="utf-8"?>
<!-- Generator: Adobe Illustrator 19.1.0, SVG Export Plug-In . SVG Version: 6.00 Build 0)  -->
<!DOCTYPE svg PUBLIC "-//W3C//DTD SVG 1.1//EN" "http://www.w3.org/Graphics/SVG/1.1/DTD/svg11.dtd">
<svg version="1.1" id="Layer_1" xmlns="http://www.w3.org/2000/svg" xmlns:xlink="http://www.w3.org/1999/xlink" x="0px" y="0px"
	 viewBox="0 0 434.4 100.4" enable-background="new 0 0 434.4 100.4" xml:space="preserve">
<path id="XMLID_42_" fill="#FF4612" d="M33.5,1.9c-8.1,1.4-15.8,5.1-22,11.4C4.1,20.8,0.3,30.6,0,40.4l15.5-2.3
	c0.5-3.8,1.9-7.4,4.1-10.7C22,20.1,26.3,10.2,33.5,1.9z"/>
<path id="XMLID_41_" opacity="0.4" fill="#7DA4DD" d="M53.1,20c5-1.5,11.3-2.9,18.8-3.4c-1-1.3-2.1-2.6-3.4-3.8
	C60.2,4.7,49.4,0.9,38.6,1.3c-6,6-10.2,13.3-13,19.9C33.7,15.4,44.6,15,53.1,20z"/>
<path id="XMLID_40_" opacity="0.7" fill="#7DA4DD" d="M63.6,50.6c4.3,2.1,8.8,4.7,13.3,7.7c5.6-12.3,4.7-26.8-2.7-38.4
	c-6.8,0.4-12.7,1.4-17.6,2.7c0.4,0.3,0.8,0.7,1.2,1C65.1,30.9,67.1,41.5,63.6,50.6z"/>
<path id="XMLID_39_" fill="#7DA4DD" d="M62.1,53.7c-1.1,1.9-2.4,3.8-4,5.4c-4,4-9,6.4-14.2,7.2l-2,15.5c9.9-0.4,19.6-4.4,27.1-12
	c2.5-2.6,4.6-5.4,6.3-8.4C70.9,58.3,66.4,55.8,62.1,53.7z"/>
<circle id="XMLID_36_" fill="#003056" cx="40.3" cy="40.3" r="14.4"/>
<g>
	<path fill="#003056" d="M102.2,8.9c0-2.2,0.7-4,2.2-5.5s3.5-2.1,6.1-2.1c2.5,0,4.5,0.7,6,2.1c1.5,1.4,2.3,3.3,2.3,5.5
		c0,2.3-0.8,4.1-2.3,5.5c-1.5,1.4-3.5,2.1-6,2.1c-2.5,0-4.5-0.7-6-2.1C102.9,13,102.2,11.2,102.2,8.9z M117.9,78.6H103V23.2h14.8
		V78.6z"/>
	<path fill="#003056" d="M122.5,50.5c0-8.6,1.9-15.5,5.8-20.6c3.9-5.1,9.2-7.7,15.9-7.7c5.4,0,9.8,2,13.4,6V0h14.8v78.6H159
		l-0.7-5.9c-3.7,4.6-8.4,6.9-14.2,6.9c-6.5,0-11.7-2.6-15.7-7.7S122.5,59.6,122.5,50.5z M137.3,51.6c0,5.2,0.9,9.2,2.7,12
		c1.8,2.8,4.4,4.2,7.9,4.2c4.6,0,7.8-1.9,9.7-5.8V39.9c-1.8-3.9-5-5.8-9.6-5.8C140.9,34.1,137.3,39.9,137.3,51.6z"/>
	<path fill="#003056" d="M204.1,79.6c-8.1,0-14.7-2.5-19.8-7.5c-5.1-5-7.6-11.6-7.6-19.9v-1.4c0-5.6,1.1-10.5,3.2-14.9
		c2.1-4.4,5.2-7.8,9.1-10.1c3.9-2.4,8.4-3.6,13.5-3.6c7.6,0,13.5,2.4,17.9,7.2c4.3,4.8,6.5,11.5,6.5,20.3v6h-35.3
		c0.5,3.6,1.9,6.5,4.3,8.7c2.4,2.2,5.4,3.3,9.1,3.3c5.7,0,10.1-2.1,13.4-6.2l7.3,8.1c-2.2,3.1-5.2,5.6-9,7.3
		C212.9,78.7,208.7,79.6,204.1,79.6z M202.4,34.1c-2.9,0-5.3,1-7.1,3c-1.8,2-3,4.8-3.5,8.5h20.6v-1.2c-0.1-3.3-1-5.8-2.7-7.6
		C208,35,205.5,34.1,202.4,34.1z"/>
	<path fill="#003056" d="M262.1,78.6c-0.7-1.3-1.2-3-1.5-5c-3.6,4-8.2,6-14,6c-5.4,0-9.9-1.6-13.5-4.7s-5.3-7.1-5.3-11.9
		c0-5.9,2.2-10.4,6.5-13.5c4.3-3.1,10.6-4.7,18.9-4.8h6.8v-3.2c0-2.6-0.7-4.6-2-6.1s-3.4-2.3-6.2-2.3c-2.5,0-4.4,0.6-5.9,1.8
		c-1.4,1.2-2.1,2.8-2.1,4.9H229c0-3.2,1-6.2,3-8.9c2-2.7,4.8-4.9,8.4-6.4c3.6-1.6,7.7-2.3,12.2-2.3c6.8,0,12.2,1.7,16.2,5.1
		c4,3.4,6,8.2,6,14.5v24c0,5.3,0.8,9.2,2.2,11.9v0.9H262.1z M249.9,68.3c2.2,0,4.2-0.5,6-1.5c1.8-1,3.2-2.3,4.1-3.9v-9.5h-5.5
		c-7.4,0-11.3,2.6-11.8,7.7l-0.1,0.9c0,1.8,0.6,3.4,1.9,4.6C245.8,67.7,247.6,68.3,249.9,68.3z"/>
	<path fill="#003056" d="M278.8,50.5c0-8.5,2-15.3,6.1-20.5s9.5-7.8,16.3-7.8c6.1,0,10.8,2.1,14.2,6.2l0.6-5.2h13.4v53.5
		c0,4.8-1.1,9.1-3.3,12.6c-2.2,3.6-5.3,6.3-9.3,8.2s-8.7,2.8-14,2.8c-4.1,0-8-0.8-11.9-2.4c-3.9-1.6-6.8-3.7-8.8-6.3l6.5-9
		c3.7,4.1,8.2,6.2,13.4,6.2c3.9,0,7-1,9.2-3.1s3.3-5.1,3.3-8.9v-3c-3.4,3.9-7.9,5.8-13.5,5.8c-6.7,0-12-2.6-16.1-7.8
		c-4.1-5.2-6.2-12.1-6.2-20.7V50.5z M293.6,51.6c0,5,1,9,3,11.8c2,2.9,4.8,4.3,8.3,4.3c4.5,0,7.7-1.7,9.7-5.1V39.2
		c-2-3.4-5.2-5.1-9.6-5.1c-3.5,0-6.3,1.5-8.4,4.4C294.6,41.4,293.6,45.8,293.6,51.6z"/>
	<path fill="#003056" d="M361,79.6c-8.1,0-14.7-2.5-19.8-7.5c-5.1-5-7.6-11.6-7.6-19.9v-1.4c0-5.6,1.1-10.5,3.2-14.9
		c2.1-4.4,5.2-7.8,9.1-10.1c3.9-2.4,8.4-3.6,13.5-3.6c7.6,0,13.5,2.4,17.9,7.2c4.3,4.8,6.5,11.5,6.5,20.3v6h-35.3
		c0.5,3.6,1.9,6.5,4.3,8.7c2.4,2.2,5.4,3.3,9.1,3.3c5.7,0,10.1-2.1,13.4-6.2l7.3,8.1c-2.2,3.1-5.2,5.6-9,7.3
		C369.8,78.7,365.6,79.6,361,79.6z M359.3,34.1c-2.9,0-5.3,1-7.1,3c-1.8,2-3,4.8-3.5,8.5h20.6v-1.2c-0.1-3.3-1-5.8-2.7-7.6
		C364.9,35,362.5,34.1,359.3,34.1z"/>
	<path fill="#003056" d="M400.5,23.2l0.5,6.4c4-4.9,9.3-7.4,15.9-7.4c5.9,0,10.2,1.7,13.1,5.2c2.9,3.4,4.3,8.6,4.4,15.5v35.8h-14.8
		V43.1c0-3.1-0.7-5.4-2-6.8c-1.4-1.4-3.6-2.1-6.8-2.1c-4.2,0-7.3,1.8-9.4,5.3v39.1h-14.8V23.2H400.5z"/>
</g>
</svg>
